<svg xmlns="http://www.w3.org/2000/svg" width="1200" height="630" viewBox="0 0 1200 630" role="img" aria-label="MaredeVendas">
  <defs>
    <linearGradient id="bg" x1="0" y1="0" x2="1200" y2="630" gradientUnits="userSpaceOnUse">
      <stop stop-color="#F56040"/>
      <stop offset="0.45" stop-color="#E1306C"/>
      <stop offset="1" stop-color="#833AB4"/>
    </linearGradient>
    <linearGradient id="card" x1="120" y1="80" x2="1080" y2="550" gradientUnits="userSpaceOnUse">
      <stop stop-color="#ffffff" stop-opacity="0.16"/>
      <stop offset="1" stop-color="#ffffff" stop-opacity="0.06"/>
    </linearGradient>
  </defs>

  <rect width="1200" height="630" fill="url(#bg)"/>
  <circle cx="1080" cy="80" r="180" fill="#fff" fill-opacity="0.08"/>
  <circle cx="80" cy="560" r="220" fill="#fff" fill-opacity="0.07"/>
  <circle cx="980" cy="520" r="90" fill="#fff" fill-opacity="0.1"/>

  <rect x="96" y="96" width="1008" height="438" rx="36" fill="url(#card)" stroke="#fff" stroke-opacity="0.22" stroke-width="2"/>

  <!-- Badge com monograma M (mesma identidade do favicon) -->
  <g transform="translate(168 220)">
    <rect width="152" height="152" rx="36" fill="#fff"/>
    <path
      fill="#E1306C"
      d="M34 118V42c0-3.5 2.8-6.4 6.4-6.4h7.4c2.2 0 4.3 1.15 5.5 3.05L74.6 74a2.5 2.5 0 0 0 4.4 0l21.3-35.35c1.2-1.9 3.3-3.05 5.5-3.05h7.4c3.5 0 6.4 2.9 6.4 6.4v76c0 3.5-2.9 6.4-6.4 6.4h-8.6c-3.5 0-6.4-2.9-6.4-6.4V72.8a2.2 2.2 0 0 0-3.95-1.4L80.7 94a6.7 6.7 0 0 1-11.25 0L54.95 71.4a2.2 2.2 0 0 0-3.95 1.4V118c0 3.5-2.9 6.4-6.4 6.4h-8.6c-3.5 0-6.4-2.9-6.4-6.4z"
    />
    <path
      fill="none"
      stroke="#E1306C"
      stroke-width="7"
      stroke-linecap="round"
      d="M42 136c12-10 24-10 36 0s24 10 36 0"
    />
  </g>

  <text x="360" y="270" fill="#fff" font-family="Inter, Segoe UI, Arial, sans-serif" font-size="34" font-weight="600" letter-spacing="2">SEU SHOPPING ONLINE</text>
  <text x="360" y="360" fill="#fff" font-family="Inter, Segoe UI, Arial, sans-serif" font-size="78" font-weight="700">MaredeVendas</text>
  <text x="360" y="430" fill="#fff" font-family="Inter, Segoe UI, Arial, sans-serif" font-size="32" font-weight="500" opacity="0.92">Lojas perto de você · peça pelo WhatsApp</text>

  <text x="600" y="580" text-anchor="middle" fill="#fff" font-family="Inter, Segoe UI, Arial, sans-serif" font-size="26" font-weight="500" opacity="0.85">maredevendas.com.br</text>
</svg>
